<svg xmlns="http://www.w3.org/2000/svg" viewBox="0 0 256 256" role="img" aria-label="Showly logo">
  <defs>
    <linearGradient id="g" x1="0" x2="1" y1="0" y2="1">
      <stop offset="0%" stop-color="#111111"/>
      <stop offset="100%" stop-color="#3a2f1f"/>
    </linearGradient>
  </defs>
  <rect width="256" height="256" rx="56" fill="#f6f0e7"/>
  <path d="M68 78c18-20 42-30 71-30 22 0 40 5 54 16l-18 28c-12-8-27-12-43-12-18 0-32 5-41 14-9 9-14 20-14 34s5 25 14 34c10 9 24 14 42 14 18 0 34-5 48-15v-16h-48v-30h82v61c-22 20-50 30-83 30-30 0-55-9-73-28-19-18-28-40-28-66 0-26 9-48 27-64z" fill="url(#g)"/>
</svg>
